<?xml version="1.0" encoding="UTF-8"?>
<svg version="1.1" xmlns="http://www.w3.org/2000/svg" width="512" height="512">
<path d="M0 0 C2.92200866 0.00538168 5.84386498 0.00001037 8.76586914 -0.00634766 C35.99738183 -0.01964867 35.99738183 -0.01964867 40.72875977 3.13037109 C46.81121288 12.25160013 43.97225439 29.74948159 43.97875977 40.38037109 C43.97943451 41.37391602 43.98010925 42.36746094 43.98080444 43.39111328 C43.92091866 99.21585724 32.69207891 154.56480469 8.72875977 205.13037109 C8.3065918 206.03223145 7.88442383 206.9340918 7.44946289 207.86328125 C-4.66610509 233.56559333 -19.88685003 257.45849444 -38.27124023 279.13037109 C-39.05499023 280.09845703 -39.83874023 281.06654297 -40.64624023 282.06396484 C-47.51186678 290.441006 -55.05688288 298.10437092 -62.70874023 305.75537109 C-63.24097198 306.28850922 -63.77320374 306.82164734 -64.32156372 307.37094116 C-65.86245648 308.91153718 -67.40760798 310.44770033 -68.95483398 311.98193359 C-69.8577417 312.87734863 -70.76064941 313.77276367 -71.69091797 314.6953125 C-74.27124023 317.13037109 -74.27124023 317.13037109 -76.96658325 318.80897522 C-79.64961726 320.98973839 -79.64961726 320.98973839 -79.41404724 324.54377747 C-79.21289393 325.93613454 -78.98111233 327.32426215 -78.72607422 328.70776367 C-78.60757425 329.47331007 -78.48907429 330.23885647 -78.36698341 331.02760124 C-77.96342863 333.59400202 -77.52142066 336.15229355 -77.07983398 338.71240234 C-76.78525006 340.54090454 -76.493354 342.36984153 -76.20396423 344.19917297 C-75.57856281 348.12644629 -74.93772707 352.05077409 -74.2855835 355.97369385 C-73.26336229 362.14164956 -72.29268325 368.31697012 -71.33422852 374.49511719 C-71.09274362 376.04951602 -71.09274362 376.04951602 -70.84638023 377.63531685 C-70.51872304 379.74440193 -70.19115215 381.85350042 -69.86366653 383.96261215 C-69.03572853 389.28308458 -68.19949911 394.60224882 -67.36303711 399.92138672 C-67.19700296 400.97834181 -67.03096882 402.0352969 -66.85990334 403.12428093 C-66.00249621 408.57922345 -65.14138848 414.03355249 -64.27490234 419.48706055 C-63.41696032 424.88876268 -62.56816293 430.29183249 -61.72546196 435.69593239 C-61.40710772 437.72621912 -61.08536399 439.75597758 -60.76005745 441.78516197 C-60.31116952 444.58734312 -59.87397268 447.39111692 -59.43945312 450.19555664 C-59.30502304 451.01659378 -59.17059296 451.83763092 -59.03208923 452.68354797 C-58.23655556 457.92358726 -57.56547726 462.66499521 -60.74232483 467.25656128 C-61.3732756 467.90053864 -62.00422638 468.54451599 -62.65429688 469.20800781 C-63.36916763 469.94832245 -64.08403839 470.68863708 -64.8205719 471.4513855 C-65.59964401 472.22974762 -66.37871613 473.00810974 -67.18139648 473.81005859 C-67.98226181 474.62282257 -68.78312714 475.43558655 -69.60826111 476.27297974 C-71.30417771 477.98542654 -73.00671455 479.69133875 -74.71533203 481.39111328 C-77.32298949 483.99463739 -79.89409574 486.63084622 -82.46459961 489.27099609 C-84.11808275 490.93195924 -85.7736162 492.59088434 -87.43139648 494.24755859 C-88.19629898 495.0380661 -88.96120148 495.82857361 -89.74928284 496.64303589 C-95.84741457 502.6126223 -95.84741457 502.6126223 -100.32373047 503.06054688 C-109.10981633 501.79240859 -116.4068293 490.94919267 -122.13012695 484.87719727 C-124.105524 482.79355279 -126.08384531 480.71269363 -128.06222534 478.63188171 C-128.57791132 478.08893475 -129.09359729 477.54598778 -129.62491012 476.98658788 C-136.85216469 469.38489471 -144.16777505 461.86831064 -151.47862053 454.34713268 C-157.42013402 448.22961976 -163.32838058 442.0852484 -169.17016602 435.87231445 C-174.28910065 430.42841687 -179.46324759 425.04447156 -184.70894063 419.72250921 C-187.47630794 416.91082984 -190.20911107 414.07871463 -192.87679672 411.17201805 C-203.48191605 398.82071451 -203.48191605 398.82071451 -217.75284576 392.84412003 C-224.73514373 393.51218238 -231.07608913 395.54186757 -237.47975349 398.35223866 C-241.15427063 399.37651756 -243.58436 399.06970067 -247.27124023 398.13037109 C-249.80084038 396.35302448 -249.80084038 396.35302448 -252.16842651 393.98835754 C-253.53116447 392.64883026 -253.53116447 392.64883026 -254.9214325 391.28224182 C-255.90535989 390.28505552 -256.88897693 389.28756291 -257.87231445 388.28979492 C-258.92465259 387.24395387 -259.97827078 386.19939947 -261.0330658 385.15603638 C-263.88758798 382.32456175 -266.72291719 379.4745668 -269.55447912 376.62015367 C-272.52224744 373.63344953 -275.50505197 370.66182617 -278.48562622 367.68791199 C-283.48765129 362.69222419 -288.47724785 357.68437693 -293.4597168 352.66918945 C-299.21856607 346.87283689 -304.99680882 341.09638724 -310.78579891 335.33014852 C-316.35724727 329.77965394 -321.91448426 324.21513608 -327.46545792 318.64417076 C-329.82683852 316.27480792 -332.19312224 313.91050748 -334.56350327 311.55014992 C-337.35426253 308.76994671 -340.13237384 305.97768883 -342.90123177 303.17567825 C-343.91882295 302.14988412 -344.94068015 301.12830161 -345.96707344 300.11131477 C-347.36827445 298.72154988 -348.75257267 297.31480483 -350.13595581 295.90730286 C-350.91499708 295.12507764 -351.69403835 294.34285242 -352.49668694 293.53692341 C-354.61023706 290.67064211 -355.01186853 288.65430158 -355.27124023 285.13037109 C-354.80224609 282.21777344 -354.80224609 282.21777344 -353.98608398 279.21630859 C-353.70313477 278.12576172 -353.42018555 277.03521484 -353.12866211 275.91162109 C-352.51314867 273.63252249 -351.89594874 271.35387871 -351.27709961 269.07568359 C-350.99543945 267.98771484 -350.7137793 266.89974609 -350.42358398 265.77880859 C-350.15537842 264.79058105 -349.88717285 263.80235352 -349.61083984 262.78417969 C-349.20615401 259.62175339 -349.63840748 258.81509231 -351.27124023 256.13037109 C-352.62491193 254.60154346 -354.03763916 253.12428653 -355.48449707 251.68333435 C-356.36784225 250.798685 -357.25118744 249.91403564 -358.16130066 249.00257874 C-359.14252027 248.03003168 -360.12383133 247.05757688 -361.10522461 246.08520508 C-362.13718093 245.05545051 -363.16868946 244.02524704 -364.19978333 242.99462891 C-366.41933385 240.77801009 -368.64200244 238.56458315 -370.86714172 236.35357475 C-374.38461805 232.85836746 -377.89498995 229.35608311 -381.40441895 225.85279846 C-386.95495217 220.31364444 -392.51013832 214.77918393 -398.06736708 209.24674803 C-408.02234438 199.33610583 -417.97174576 189.41987349 -427.91594362 179.49841553 C-431.40679189 176.01598098 -434.90042893 172.53637532 -438.39632416 169.05900753 C-440.56888529 166.89708117 -442.73942336 164.73313213 -444.90946007 162.56867218 C-445.91719327 161.56441256 -446.92579731 160.56102593 -447.93532753 159.55857277 C-449.31184175 158.19149749 -450.68500314 156.82104867 -452.0579834 155.45042419 C-452.82784828 154.68407874 -453.59771317 153.91773329 -454.39090729 153.12816525 C-456.92922592 150.43128216 -458.18418838 148.62366493 -458.83374023 144.94287109 C-458.23949309 140.915196 -457.79538522 140.20469612 -455.18017578 137.34887695 C-454.54332855 136.65003387 -453.90648132 135.9511908 -453.25033569 135.23117065 C-450.25931012 132.05621253 -447.23940264 128.91690937 -444.16577148 125.82177734 C-443.51928146 125.16958725 -442.87279144 124.51739716 -442.20671082 123.84544373 C-440.85435442 122.4837274 -439.50060643 121.12339176 -438.14550781 119.7644043 C-436.0714649 117.68053762 -434.00832296 115.58624118 -431.94506836 113.49169922 C-430.62346031 112.16357059 -429.30121731 110.83607342 -427.97827148 109.50927734 C-427.0578582 108.57034386 -427.0578582 108.57034386 -426.11885071 107.61244202 C-425.54112411 107.03771652 -424.96339752 106.46299103 -424.36816406 105.87084961 C-423.86521317 105.36425308 -423.36226227 104.85765656 -422.84407043 104.33570862 C-420.17406495 102.28955144 -418.0429096 102.07420732 -414.72441101 102.31573486 C-413.7571962 102.46242615 -412.78998138 102.60911743 -411.79345703 102.76025391 C-410.678992 102.92541504 -409.56452698 103.09057617 -408.41629028 103.26074219 C-406.58685379 103.54425537 -406.58685379 103.54425537 -404.72045898 103.83349609 C-403.43025848 104.02733887 -402.14005798 104.22118164 -400.8107605 104.42089844 C-398.00072036 104.84333032 -395.19152119 105.27087723 -392.38284302 105.70227051 C-388.68413512 106.27027738 -384.98424579 106.83006574 -381.2838316 107.38683701 C-365.06639524 109.82720954 -348.8614249 112.34229312 -332.66543388 114.92102814 C-330.18992109 115.31465226 -327.71416292 115.7066902 -325.23829651 116.0980835 C-324.43224944 116.22552067 -323.62620237 116.35295784 -322.79572964 116.48425674 C-321.18525743 116.73882573 -319.57477182 116.99330998 -317.9642725 117.24770737 C-313.23002436 117.99679371 -308.49801386 118.75851104 -303.76726151 119.52935028 C-300.81848534 120.00730684 -297.86812828 120.47487422 -294.91727066 120.93978882 C-293.54518933 121.15831067 -292.17381733 121.38134032 -290.80324936 121.60916138 C-288.93063655 121.9199458 -287.05520415 122.2135969 -285.1796875 122.50634766 C-284.1293483 122.67604065 -283.07900909 122.84573364 -281.99684143 123.02056885 C-279.02001506 123.14049183 -277.72654866 122.75949591 -275.27124023 121.13037109 C-273.84824422 119.69535712 -272.4863424 118.19868647 -271.16967773 116.66552734 C-266.27449359 111.09262547 -261.13821789 105.81370315 -255.89624023 100.56787109 C-255.02741211 99.68679687 -254.15858398 98.80572266 -253.26342773 97.89794922 C-247.24911708 91.8702932 -240.94507974 86.41306432 -234.27124023 81.13037109 C-233.07928655 80.16490073 -231.88779185 79.19886304 -230.69702148 78.23193359 C-178.97247291 37.08593134 -116.57925799 11.99878339 -51.27124023 3.13037109 C-50.45171875 3.01854492 -49.63219727 2.90671875 -48.7878418 2.79150391 C-43.95777349 2.14735933 -39.12595507 1.55546861 -34.27124023 1.13037109 C-33.26569092 1.04207031 -32.2601416 0.95376953 -31.22412109 0.86279297 C-20.81203774 0.05697273 -10.43833701 -0.02286217 0 0 Z M-50.27124023 20.13037109 C-51.32311523 20.27490723 -52.37499023 20.41944336 -53.45874023 20.56835938 C-64.99956338 22.19669739 -76.32798511 24.47697713 -87.64624023 27.25537109 C-89.19964111 27.63592651 -89.19964111 27.63592651 -90.78442383 28.02416992 C-91.73655762 28.26804443 -92.68869141 28.51191895 -93.66967773 28.76318359 C-94.93303955 29.08633545 -94.93303955 29.08633545 -96.22192383 29.41601562 C-98.46060888 30.0297706 -98.46060888 30.0297706 -100.27124023 32.13037109 C-63.31124023 69.09037109 -26.35124023 106.05037109 11.72875977 144.13037109 C14.07818075 141.78095011 14.32286904 140.47042726 15.09594727 137.27490234 C15.33982178 136.27249512 15.58369629 135.27008789 15.83496094 134.23730469 C16.08866455 133.1501416 16.34236816 132.06297852 16.60375977 130.94287109 C17.00075073 129.25025146 17.00075073 129.25025146 17.40576172 127.5234375 C24.1345956 98.28950651 27.0090909 69.26895775 26.97875977 39.31787109 C26.97773254 37.83137558 26.97773254 37.83137558 26.97668457 36.31484985 C26.97024279 33.49671634 26.95395136 30.6788909 26.93188477 27.86083984 C26.92529846 26.58024185 26.92529846 26.58024185 26.9185791 25.27377319 C26.97858624 21.06768471 26.97858624 21.06768471 25.72875977 17.13037109 C0.22305716 16.80627283 -24.96062599 16.55005021 -50.27124023 20.13037109 Z M-216.27124023 89.13037109 C-217.12975586 89.79552734 -217.98827148 90.46068359 -218.87280273 91.14599609 C-224.90817305 95.89207678 -230.60209094 100.95649849 -236.27124023 106.13037109 C-237.95859678 107.63053246 -239.64609633 109.130533 -241.33374023 110.63037109 C-248.81069549 117.36900632 -255.7496254 124.46879919 -262.27124023 132.13037109 C-263.07045898 133.04044922 -263.86967773 133.95052734 -264.69311523 134.88818359 C-299.37257603 174.66248867 -322.29647088 223.14564995 -335.58374023 273.94287109 C-335.9035083 275.1326355 -335.9035083 275.1326355 -336.22973633 276.34643555 C-337.2381374 280.24076416 -337.2381374 280.24076416 -336.53609467 284.09855652 C-335.08247359 286.43359874 -333.45310572 288.26154271 -331.54528809 290.24487305 C-330.769207 291.05549698 -329.99312592 291.86612091 -329.19352722 292.7013092 C-328.34067642 293.58153244 -327.48782562 294.46175568 -326.60913086 295.36865234 C-325.71116287 296.30225082 -324.81319489 297.2358493 -323.88801575 298.19773865 C-315.60854542 306.79495486 -307.25308718 315.31936689 -298.88021088 323.82553101 C-292.69752721 330.10865774 -286.55317296 336.42484576 -280.45394564 342.78903866 C-276.15505541 347.26822553 -271.8144372 351.7042435 -267.44162321 356.11127567 C-264.83402462 358.74175008 -262.24841875 361.38746953 -259.7068634 364.0819397 C-250.15774996 375.22019537 -250.15774996 375.22019537 -237.66064644 381.60817337 C-232.73647789 381.48241628 -228.54519404 380.06978023 -224.12687016 377.97578812 C-221.41233503 376.73905757 -218.59224807 376.06040265 -215.70483398 375.34130859 C-213.70293794 374.73987358 -211.70421148 374.12779085 -209.70874023 373.50537109 C-208.62085205 373.16763672 -207.53296387 372.82990234 -206.41210938 372.48193359 C-161.19786967 358.10609066 -119.75056246 334.37125401 -84.71264648 302.34912109 C-83.15491888 300.93345825 -81.58077678 299.53551027 -79.98608398 298.16162109 C-67.56196604 287.3760763 -56.46185832 275.04935135 -46.60424805 261.89599609 C-45.21936364 260.06165836 -43.80649995 258.25164633 -42.38842773 256.44287109 C-34.16386833 245.8560962 -27.07064124 234.67547648 -20.27124023 223.13037109 C-19.78768066 222.31052734 -19.30412109 221.49068359 -18.8059082 220.64599609 C-10.82828575 206.97794519 -4.31376507 192.74706132 1.72875977 178.13037109 C2.05730957 177.33646973 2.38585937 176.54256836 2.72436523 175.72460938 C5.97455961 169.12365909 5.97455961 169.12365909 6.06678009 162.29139328 C4.31298575 159.45885897 2.18826349 157.33787587 -0.16784668 154.97979736 C-0.67042134 154.47410272 -1.172996 153.96840808 -1.69080019 153.44738936 C-3.37499392 151.75522231 -5.06624149 150.07028914 -6.75756836 148.38525391 C-7.96684109 147.17327109 -9.17568794 145.96086322 -10.38414001 144.74806213 C-13.66656392 141.45651601 -16.95528823 138.17133301 -20.24544334 134.88751698 C-23.68415851 131.45386032 -27.11799704 128.01533245 -30.5526123 124.57757568 C-36.31932184 118.80722705 -42.09023718 113.04110982 -47.86352539 107.27734375 C-54.54630353 100.60546034 -61.2218321 93.92638837 -67.89366007 87.24355626 C-73.61654887 81.51160527 -79.3433088 75.78354382 -85.07335043 70.05874324 C-88.49825038 66.63696755 -91.92176989 63.21384013 -95.34181213 59.78720856 C-98.55479047 56.56847254 -101.77258413 53.35463093 -104.99423409 50.14457512 C-106.17876029 48.96270354 -107.36156914 47.77910799 -108.54257011 46.59371376 C-110.14869774 44.98216106 -111.76079257 43.37683275 -113.37463379 41.77301025 C-114.27723686 40.87116123 -115.17983994 39.96931221 -116.10979462 39.04013443 C-131.41414447 25.51784824 -201.85557033 77.88530307 -216.27124023 89.13037109 Z M-416.83666992 122.24169922 C-417.79913991 123.20480111 -418.7507043 124.17888239 -419.69311523 125.16162109 C-420.19796448 125.67213013 -420.70281372 126.18263916 -421.22296143 126.70861816 C-422.83201901 128.34005233 -424.42661046 129.98484377 -426.02124023 131.63037109 C-427.11015894 132.73935308 -428.19999242 133.84743763 -429.29077148 134.95458984 C-431.96165109 137.66955364 -434.61963999 140.39658009 -437.27124023 143.13037109 C-435.83475144 146.41235376 -434.06782008 148.58119337 -431.53805542 151.10406494 C-430.76120392 151.88366577 -429.98435242 152.6632666 -429.18395996 153.4664917 C-428.33088257 154.31237854 -427.47780518 155.15826538 -426.59887695 156.02978516 C-425.70125641 156.92769775 -424.80363586 157.82561035 -423.8788147 158.75073242 C-421.42065976 161.20946087 -418.95638979 163.66197659 -416.49097586 166.11342335 C-413.91424615 168.67764563 -411.34318379 171.24753754 -408.77151489 173.8168335 C-403.90234274 178.67979092 -399.02809505 183.53762786 -394.15200341 188.393646 C-388.60035494 193.92293527 -383.05438835 199.45790857 -377.50889182 204.99336672 C-366.10265175 216.37870495 -354.68929727 227.75688356 -343.27124023 239.13037109 C-341.00020485 236.85933571 -340.45490487 235.27504662 -339.38061523 232.26708984 C-339.00807617 231.24929443 -338.63553711 230.23149902 -338.25170898 229.18286133 C-337.64262695 227.51719116 -337.64262695 227.51719116 -337.02124023 225.81787109 C-327.26265955 199.83565001 -314.66002714 175.37861414 -298.73583984 152.63378906 C-298.2138501 151.88758301 -297.69186035 151.14137695 -297.15405273 150.37255859 C-296.69401855 149.7214209 -296.23398437 149.0702832 -295.76000977 148.39941406 C-294.48659837 146.45859977 -293.32362818 144.50569431 -292.17819214 142.48855591 C-291.54889801 141.38035492 -290.91960388 140.27215393 -290.27124023 139.13037109 C-303.60692831 136.49915178 -317.00932289 134.39802096 -330.44311523 132.33740234 C-332.7423925 131.98310815 -335.04164748 131.62866933 -337.34088135 131.27409363 C-342.12436982 130.53703931 -346.90814723 129.80189762 -351.69213867 129.06811523 C-357.82601812 128.12709676 -363.95909288 127.18094241 -370.09196091 126.23335743 C-374.82358181 125.50289755 -379.55563308 124.77525789 -384.28781891 124.04846764 C-386.55101676 123.70050031 -388.81407445 123.3516201 -391.07698822 123.00181007 C-394.22561289 122.51548595 -397.37480117 122.0329923 -400.52416992 121.55151367 C-401.45712891 121.40661499 -402.39008789 121.26171631 -403.35131836 121.11242676 C-404.20876648 120.98213577 -405.0662146 120.85184479 -405.949646 120.71760559 C-407.06334124 120.54646602 -407.06334124 120.54646602 -408.19953537 120.37186909 C-412.91535401 119.80597655 -412.91535401 119.80597655 -416.83666992 122.24169922 Z M-96.27124023 334.13037109 C-96.97917725 334.61280273 -97.68711426 335.09523438 -98.41650391 335.59228516 C-129.09667948 356.43726027 -160.33655119 373.35827278 -195.27124023 386.13037109 C-190.62032064 391.71601759 -185.66135661 396.87688462 -180.51196289 402.00317383 C-179.65277252 402.86251022 -178.79358215 403.72184662 -177.90835571 404.60722351 C-175.57174252 406.94326288 -173.23294577 409.27707351 -170.89311647 411.60988879 C-168.44096695 414.05575125 -165.99168336 416.50448035 -163.54208374 418.95289612 C-158.91188161 423.58000063 -154.27913822 428.20455194 -149.64545763 432.82817274 C-144.36652609 438.0958942 -139.0904624 443.36648409 -133.81462789 448.63730705 C-122.97000141 459.4715047 -112.12181088 470.30212641 -101.27124023 481.13037109 C-95.50096666 478.35745167 -91.07313022 474.19680813 -86.33374023 469.94287109 C-85.32504883 469.14300781 -84.31635742 468.34314453 -83.27709961 467.51904297 C-79.56356283 464.10116182 -76.40379336 461.00492019 -76.16385269 455.80156326 C-76.41651277 453.05740012 -76.82226935 450.38046787 -77.29223633 447.66503906 C-77.4458258 446.65628314 -77.59941526 445.64752722 -77.75765896 444.60820293 C-78.08179599 442.49298632 -78.41662668 440.37938318 -78.76165199 438.26747322 C-79.24325628 435.30264457 -79.69133294 432.33531344 -80.12419128 429.36302185 C-80.97890211 423.50619164 -81.87407261 417.65600602 -82.77514648 411.80615234 C-83.10240541 409.67384863 -83.42962941 407.54153956 -83.75682068 405.40922546 C-84.43470591 400.99655085 -85.11487341 396.58423478 -85.79638672 392.17211914 C-86.66916683 386.51870189 -87.53312546 380.86397215 -88.39514256 375.20890522 C-89.06402967 370.83054139 -89.73894716 366.45312293 -90.41557121 362.07594872 C-90.73713338 359.98907471 -91.05647653 357.9018575 -91.37353706 355.81429482 C-91.81428386 352.91643317 -92.26348485 350.02000424 -92.71484375 347.1237793 C-92.84320114 346.2672728 -92.97155853 345.4107663 -93.10380554 344.52830505 C-93.2284317 343.73987213 -93.35305786 342.95143921 -93.48146057 342.13911438 C-93.58633569 341.45736302 -93.6912108 340.77561167 -93.79926395 340.07320118 C-94.32998721 337.88854668 -95.20071344 336.10045368 -96.27124023 334.13037109 Z " fill="blue" transform="translate(463.271240234375,4.86962890625)"/>
<path d="M0 0 C0 5.61 0 11.22 0 17 C-1.8975 17.20625 -3.795 17.4125 -5.75 17.625 C-17.90132203 19.52694606 -28.31274106 25.50429249 -35.78125 35.34765625 C-43.32781817 47.01894183 -43.50334846 59.24708726 -43.6875 72.6875 C-43.72074111 74.37177021 -43.75523681 76.05601616 -43.79101562 77.74023438 C-43.87513345 81.82668713 -43.94230323 85.91309233 -44 90 C-43.05680908 89.98428955 -42.11361816 89.9685791 -41.1418457 89.95239258 C-37.62876852 89.90113993 -34.11609102 89.86359009 -30.6027832 89.83520508 C-29.08481562 89.82015647 -27.56689124 89.79971262 -26.04907227 89.77368164 C-23.86203323 89.73712347 -21.67557104 89.72023477 -19.48828125 89.70703125 C-18.17384033 89.6913208 -16.85939941 89.67561035 -15.50512695 89.65942383 C-11.79506824 90.01991222 -9.93316434 90.74995285 -7 93 C-5.39725031 96.20549939 -5.51996925 99.52151631 -6 103 C-7.65680822 105.34714498 -9.52512213 106.6574817 -11.8359375 108.32421875 C-22.30828943 115.96783194 -28.48022405 125.1021803 -31 138 C-31.2929822 140.88605487 -31.36917653 143.75678084 -31.4140625 146.65625 C-31.43342865 147.44398804 -31.4527948 148.23172607 -31.4727478 149.04333496 C-31.53193546 151.52878412 -31.57868226 154.01428115 -31.625 156.5 C-31.66323595 158.19793548 -31.70229084 159.89585273 -31.7421875 161.59375 C-31.8375858 165.7290164 -31.92183742 169.86437338 -32 174 C-27.11045213 173.95530789 -22.22213046 173.88493026 -17.33325195 173.79248047 C-15.67612562 173.76455408 -14.01887309 173.74320132 -12.36157227 173.72900391 C3.37840864 173.58621605 17.38998538 171.72285237 28.99609375 159.98046875 C31.2316094 157.46611459 33.35794977 154.93914801 35.2578125 152.16015625 C36.87049934 149.89064663 38.17138466 148.20133023 40.9453125 147.52734375 C44.17298408 147.39037614 46.59345599 147.78109169 49.4375 149.3125 C52.65195072 152.78410678 52.13110893 156.85655648 52.09765625 161.29296875 C52.0962413 161.99899734 52.09482635 162.70502594 52.09336853 163.43244934 C52.08777764 165.68417626 52.07522688 167.93580321 52.0625 170.1875 C52.05748382 171.71549335 52.05292112 173.24348827 52.04882812 174.77148438 C52.0378112 178.51436135 52.02055287 182.25716373 52 186 C56.88954787 185.95530789 61.77786954 185.88493026 66.66674805 185.79248047 C68.32387438 185.76455408 69.98112691 185.74320132 71.63842773 185.72900391 C87.44252371 185.58563442 100.76345829 183.56011825 112.7734375 172.34375 C120.61327034 163.90697557 123.98003512 153.21961371 125 142 C130.61 142 136.22 142 142 142 C142.82757446 157.51702114 137.28808207 171.67721767 127.359375 183.546875 C115.94647568 195.41326701 100.62697373 202.70825555 84.12719727 203.41992188 C82.10713213 203.45258777 80.08673544 203.46834951 78.06640625 203.46875 C76.98544174 203.47636353 75.90447723 203.48397705 74.79075623 203.49182129 C72.52955417 203.502536 70.26830297 203.50551099 68.00708008 203.50097656 C64.54621424 203.49999538 61.087505 203.54190078 57.62695312 203.5859375 C55.41927542 203.59113898 53.21159008 203.59383278 51.00390625 203.59375 C49.97366837 203.61014526 48.94343048 203.62654053 47.88197327 203.64343262 C43.17593913 203.59790775 40.75695978 203.53868705 36.84277344 200.75317383 C34.93890663 197.90872417 34.39752065 196.71289288 34.51171875 193.35546875 C34.52783203 192.51435547 34.54394531 191.67324219 34.56054688 190.80664062 C34.60244141 189.94232422 34.64433594 189.07800781 34.6875 188.1875 C34.71005859 187.30384766 34.73261719 186.42019531 34.75585938 185.50976562 C34.81452572 183.3391109 34.90420021 181.1693331 35 179 C33.7625 179.79664063 33.7625 179.79664063 32.5 180.609375 C31.33400651 181.32401617 30.16729881 182.03749294 29 182.75 C27.88625 183.44609375 26.7725 184.1421875 25.625 184.859375 C12.33061843 191.62078402 -1.88333758 191.60912607 -16.44018555 191.46655273 C-19.72039095 191.43720573 -22.99901221 191.44606507 -26.27929688 191.45898438 C-28.37761199 191.45275644 -30.47592208 191.44437294 -32.57421875 191.43359375 C-34.03513191 191.43799721 -34.03513191 191.43799721 -35.52555847 191.44248962 C-40.45487708 191.37370412 -44.04772354 191.30492519 -48 188 C-49.20281425 185.59437149 -49.13948769 184.06049927 -49.16113281 181.37353516 C-49.17074036 180.41138092 -49.1803479 179.44922668 -49.19024658 178.45791626 C-49.19449646 177.41219452 -49.19874634 176.36647278 -49.203125 175.2890625 C-49.20882507 174.21055023 -49.21452515 173.13203796 -49.22039795 172.02084351 C-49.2298627 169.72923771 -49.23638776 167.43761821 -49.24023438 165.14599609 C-49.24986437 161.67390293 -49.28084236 158.20242096 -49.3125 154.73046875 C-49.31903772 152.5000035 -49.32428516 150.26953403 -49.328125 148.0390625 C-49.3404718 147.01358307 -49.3528186 145.98810364 -49.36553955 144.93154907 C-49.33472972 134.73028915 -47.19189914 125.46367028 -42.4375 116.4375 C-41.83808594 115.28121094 -41.23867188 114.12492187 -40.62109375 112.93359375 C-39 110 -39 110 -37 107 C-38.31355469 107.05800781 -39.62710938 107.11601562 -40.98046875 107.17578125 C-42.71611023 107.22269048 -44.45179023 107.26818939 -46.1875 107.3125 C-47.05181641 107.35439453 -47.91613281 107.39628906 -48.80664062 107.43945312 C-49.64775391 107.45556641 -50.48886719 107.47167969 -51.35546875 107.48828125 C-52.51018677 107.52755737 -52.51018677 107.52755737 -53.68823242 107.56762695 C-57.45999159 106.64151648 -58.75337374 105.15694564 -61 102 C-61.7162335 98.32860718 -61.65311404 94.72638316 -61.59375 90.99609375 C-61.59379028 89.92182632 -61.59383057 88.8475589 -61.59387207 87.74073792 C-61.58851493 85.46699174 -61.57092413 83.19324615 -61.54199219 80.91967773 C-61.50043843 77.47385659 -61.50090218 74.03001189 -61.5078125 70.58398438 C-61.49730814 68.36717415 -61.48436338 66.15037388 -61.46875 63.93359375 C-61.46854858 62.91752548 -61.46834717 61.90145721 -61.46813965 60.854599 C-61.21072316 44.93591471 -55.36386998 28.4710763 -44 17 C-30.85468005 5.69800396 -17.4644929 -0.68043479 0 0 Z " fill="red" transform="translate(102,268)"/>
<path d="M0 0 C16.18806284 16.43416515 24.38862935 37.33484003 24.3125 60.34765625 C23.58862726 80.02966451 16.87368092 97.14805377 4.3125 112.34765625 C3.714375 113.146875 3.11625 113.94609375 2.5 114.76953125 C-10.07339591 129.58817643 -29.71331487 138.17800833 -48.6875 140.34765625 C-73.79150269 141.91224642 -95.17897585 135.08726707 -114.375 118.66015625 C-129.50644219 104.42264652 -138.79470948 84.22483085 -139.890625 63.5078125 C-140.37122501 38.67076651 -132.73027461 17.8399881 -115.5 -0.40234375 C-103.32603475 -12.03449135 -87.53523995 -20.5497458 -70.6875 -22.65234375 C-69.76839844 -22.77351563 -68.84929687 -22.8946875 -67.90234375 -23.01953125 C-42.32210041 -25.7831412 -18.69886821 -17.47025668 0 0 Z M-108.6875 17.34765625 C-114.00994517 24.88533642 -118.08653745 32.49069431 -120.6875 41.34765625 C-120.91179687 42.04761719 -121.13609375 42.74757812 -121.3671875 43.46875 C-125.55552529 58.64430269 -122.46352038 75.40897512 -115.5 89.22265625 C-111.95508164 95.34294264 -107.70185943 100.38607955 -102.6875 105.34765625 C-102.09710938 105.9715625 -101.50671875 106.59546875 -100.8984375 107.23828125 C-89.57762691 118.30973478 -73.26834801 123.20818455 -57.8125 123.78515625 C-38.84018512 123.29595979 -22.34912664 115.39606115 -9.2109375 101.78125 C2.12432826 88.75896308 8.0744445 71.79944014 7.09765625 54.5546875 C5.87329152 40.93856687 1.339827 29.46375908 -6.6875 18.34765625 C-7.19796875 17.63996094 -7.7084375 16.93226563 -8.234375 16.203125 C-20.07888912 1.33884614 -37.96560161 -4.85625833 -56.18359375 -6.9375 C-75.7875272 -7.78984493 -96.46592104 2.16798812 -108.6875 17.34765625 Z " fill="blue" transform="translate(377.6875,133.65234375)"/>
</svg>
